<svg xmlns="http://www.w3.org/2000/svg" xmlns:xlink="http://www.w3.org/1999/xlink" version="1.1" x="0px" y="0px" width="25px" height="25px" viewBox="0 0 64 64" enable-background="new 0 0 64 64" xml:space="preserve"><g><path d="M47.964 8.127H16.036c-4.4 0-8 3.6-8 8v20.977c0 4.4 3.6 8 8 8h7.397v10.768l13.333-10.768h11.197c4.4 0 8-3.6 8-8V16.127 C55.964 11.7 52.4 8.1 48 8.127z M50.964 37.104c0 1.626-1.374 3-3 3H36.767H35l-1.375 1.11l-5.191 4.193v-0.303v-5h-5 h-7.397c-1.626 0-3-1.374-3-3V16.127c0-1.626 1.374-3 3-3h31.928c1.626 0 3 1.4 3 3V37.104z"/><circle cx="21.7" cy="26.6" r="2.9"/><circle cx="32" cy="26.6" r="2.9"/><circle cx="42.3" cy="26.6" r="2.9"/></g></svg>