<?xml version="1.0" encoding="utf-8"?>
<!-- Generator: Adobe Illustrator 16.0.0, SVG Export Plug-In . SVG Version: 6.00 Build 0)  -->
<!DOCTYPE svg PUBLIC "-//W3C//DTD SVG 1.1//EN" "http://www.w3.org/Graphics/SVG/1.1/DTD/svg11.dtd">
<svg version="1.1" id="Layer_1" xmlns="http://www.w3.org/2000/svg" xmlns:xlink="http://www.w3.org/1999/xlink" x="0px" y="0px"
	 width="96px" height="96px" viewBox="0 0 96 96" enable-background="new 0 0 96 96" xml:space="preserve">
<g>
	<g>
		<path d="M47.955,9.774c-23.009,0-41.663,12.81-41.663,28.611h83.325C89.617,22.584,70.964,9.774,47.955,9.774z M40.392,15.473
			c-1.209,0-2.189-0.446-2.189-0.995c0-0.55,0.979-0.996,2.189-0.996c1.209,0,2.189,0.446,2.189,0.996
			C42.581,15.027,41.601,15.473,40.392,15.473z M51.614,22.05c-1.209,0-2.19-0.445-2.19-0.995c0-0.55,0.98-0.995,2.19-0.995
			c1.208,0,2.189,0.445,2.189,0.995C53.803,21.605,52.823,22.05,51.614,22.05z M57.508,14.478c-1.209,0-2.189-0.445-2.189-0.995
			c0-0.55,0.98-0.996,2.189-0.996c1.208,0,2.189,0.446,2.189,0.996C59.697,14.033,58.716,14.478,57.508,14.478z"/>
		<path d="M89.617,61.065H6.292c0,15.801-3.948,22.91,41.663,22.91C94.88,83.976,89.617,76.867,89.617,61.065z"/>
	</g>
	<path d="M89.296,44.127c-14.015,5.709-28.692-4.85-42.798-0.084c-3.677,1.243-7.011,3.243-10.759,4.309
		c-3.921,1.116-7.878-0.548-11.42-2.091c-7.417-3.23-14.271-4.797-21.279-0.217c-3.068,2.005-3.151,5.006-1.555,7.285h92.042
		C97.693,49.95,94.962,41.818,89.296,44.127z"/>
</g>
</svg>
