<?xml version="1.0" encoding="utf-8"?>
<!-- Generator: Adobe Illustrator 15.0.0, SVG Export Plug-In . SVG Version: 6.00 Build 0)  -->
<!DOCTYPE svg PUBLIC "-//W3C//DTD SVG 1.1//EN" "http://www.w3.org/Graphics/SVG/1.1/DTD/svg11.dtd">
<svg version="1.1" id="Layer_1" xmlns="http://www.w3.org/2000/svg" xmlns:xlink="http://www.w3.org/1999/xlink" x="0px" y="0px"
	 width="612px" height="792px" viewBox="0 0 612 792" enable-background="new 0 0 612 792" xml:space="preserve">
<rect x="-68.585" y="388.564" fill="#FFFFFF" width="185.643" height="123.842"/>
<rect x="117.038" y="388.564" fill="#D73648" width="185.642" height="123.842"/>
<rect x="-68.585" y="512.406" fill="#D73648" width="185.643" height="123.842"/>
<rect x="117.058" y="512.406" fill="#FFFFFF" width="185.642" height="123.842"/>
<path fill="#FFFFFF" d="M296.976,512.286c0-8.55-6.932-15.48-15.481-15.48h-15.48v-18.061c0-8.55-6.931-15.481-15.481-15.481
	c-8.549,0-15.479,6.931-15.479,15.481v18.061H132.518v-36.081h18.061c8.55,0,15.48-6.932,15.48-15.481
	c0-8.548-6.93-15.48-15.48-15.48h-18.061v-9.03c0-8.549-6.93-15.479-15.48-15.479v107.032h0.021l0,0H296.976z"/>
<path fill="#D73648" d="M117.038,512.286v107.032c8.55,0,15.48-6.932,15.48-15.481v-9.029h18.061c8.55,0,15.48-6.932,15.48-15.481
	s-6.93-15.48-15.48-15.48h-18.061v-35.96h102.537v18.061c0,8.549,6.93,15.481,15.479,15.481c8.55,0,15.481-6.932,15.481-15.481
	v-18.061h15.48c8.549,0,15.481-6.931,15.481-15.48L117.038,512.286z"/>
<path fill="#D73648" d="M117.078,405.254c-8.549,0-15.481,6.93-15.481,15.479v9.03h-18.06c-8.549,0-15.481,6.932-15.481,15.48
	c0,8.549,6.932,15.481,15.481,15.481h18.06v36.081H-1.06v-18.061c0-8.55-6.93-15.481-15.48-15.481s-15.481,6.931-15.481,15.481
	v18.061h-15.48c-8.549,0-15.481,6.93-15.481,15.48h179.919l0,0h0.141V405.254z"/>
<path fill="#FFFFFF" d="M-62.982,512.406c0,8.549,6.932,15.48,15.481,15.48h15.48v18.061c0,8.549,6.931,15.481,15.481,15.481
	s15.48-6.932,15.48-15.481v-18.061h102.657v35.96h-18.06c-8.549,0-15.481,6.931-15.481,15.48s6.932,15.481,15.481,15.481h18.06
	v9.029c0,8.549,6.932,15.481,15.481,15.481V512.286L-62.982,512.406z"/>
<rect x="302.297" y="140.879" fill="#FFFFFF" width="185.642" height="123.842"/>
<rect x="487.919" y="140.879" fill="#D73648" width="185.642" height="123.842"/>
<rect x="302.297" y="264.722" fill="#D73648" width="185.642" height="123.842"/>
<rect x="487.939" y="264.722" fill="#FFFFFF" width="185.643" height="123.842"/>
<polygon points="-6.714,142.987 -6.714,224.667 -6.693,224.681 -6.693,143.002 "/>
<polygon points="240.809,306.703 240.809,388.384 240.831,388.397 240.831,306.718 "/>
<polygon points="55.167,183.917 55.167,265.596 55.188,265.611 55.188,183.931 "/>
<polygon points="178.928,265.774 178.928,347.455 178.95,347.469 178.95,265.789 "/>
<polygon points="117.047,224.845 117.047,306.525 117.069,306.54 117.069,224.859 "/>
<polygon points="-6.714,140.839 -9.962,140.839 -6.714,142.987 "/>
<polygon points="-9.962,140.839 -68.574,140.839 -68.574,183.752 -6.714,224.667 -6.714,142.987 "/>
<polygon points="-6.693,388.524 55.167,388.524 55.167,265.596 -6.693,224.681 "/>
<polygon points="55.167,140.839 -6.693,140.839 -6.693,143.002 55.167,183.917 "/>
<polygon points="55.188,183.931 55.188,265.611 117.047,306.525 117.047,224.845 "/>
<polygon points="117.069,388.524 178.928,388.524 178.928,347.455 117.069,306.54 "/>
<polygon points="178.928,140.839 117.069,140.839 117.069,224.859 178.928,265.774 "/>
<polygon points="178.95,265.789 178.95,347.469 240.809,388.384 240.809,306.703 "/>
<polygon points="240.831,388.524 241.021,388.524 240.831,388.397 "/>
<polygon points="302.69,140.839 240.831,140.839 240.831,306.718 302.69,347.632 "/>
<polygon points="364.168,390.591 364.168,472.271 364.189,472.285 364.189,390.606 "/>
<polygon points="611.69,554.307 611.69,635.987 611.712,636.001 611.712,554.322 "/>
<polygon points="426.048,431.521 426.048,513.2 426.069,513.215 426.069,431.535 "/>
<polygon points="549.81,513.379 549.81,595.059 549.831,595.072 549.831,513.393 "/>
<polygon points="487.928,472.45 487.928,554.129 487.951,554.144 487.951,472.463 "/>
<polygon points="364.168,388.443 360.919,388.443 364.168,390.591 "/>
<polygon points="360.919,388.443 302.308,388.443 302.308,431.356 364.168,472.271 364.168,390.591 "/>
<polygon points="364.189,636.128 426.048,636.128 426.048,513.2 364.189,472.285 "/>
<polygon points="426.048,388.443 364.189,388.443 364.189,390.606 426.048,431.521 "/>
<polygon points="426.069,431.535 426.069,513.215 487.928,554.129 487.928,472.45 "/>
<polygon points="487.951,636.128 549.81,636.128 549.81,595.059 487.951,554.144 "/>
<polygon points="549.81,388.443 487.951,388.443 487.951,472.463 549.81,513.379 "/>
<polygon points="549.831,513.393 549.831,595.072 611.69,635.987 611.69,554.307 "/>
<polygon points="611.712,636.128 611.902,636.128 611.712,636.001 "/>
<polygon points="673.572,388.443 611.712,388.443 611.712,554.322 673.572,595.236 "/>
<path fill="#FFFFFF" d="M667.858,264.601c0-8.55-6.931-15.48-15.481-15.48h-15.48v-18.061c0-8.549-6.931-15.48-15.48-15.48
	s-15.48,6.931-15.48,15.48v18.061H503.399V213.04h18.061c8.549,0,15.481-6.93,15.481-15.48c0-8.549-6.932-15.481-15.481-15.481
	h-18.061v-9.029c0-8.551-6.931-15.481-15.48-15.481v107.032h0.02l0,0H667.858z"/>
<path fill="#D73648" d="M487.919,264.601v107.032c8.549,0,15.48-6.932,15.48-15.481v-9.029h18.061
	c8.549,0,15.481-6.932,15.481-15.481s-6.932-15.48-15.481-15.48h-18.061v-35.96h102.538v18.061c0,8.549,6.931,15.48,15.48,15.48
	s15.48-6.931,15.48-15.48v-18.061h15.48c8.55,0,15.481-6.931,15.481-15.48L487.919,264.601z"/>
<path fill="#D73648" d="M487.959,157.569c-8.549,0-15.479,6.93-15.479,15.481v9.029h-18.06c-8.551,0-15.481,6.932-15.481,15.481
	c0,8.55,6.93,15.48,15.481,15.48h18.06v36.081H369.822v-18.061c0-8.549-6.932-15.48-15.481-15.48s-15.48,6.931-15.48,15.48v18.061
	h-15.479c-8.551,0-15.481,6.93-15.481,15.48h179.918l0,0h0.141V157.569z"/>
<path fill="#FFFFFF" d="M307.9,264.722c0,8.549,6.931,15.48,15.481,15.48h15.479v18.061c0,8.549,6.931,15.48,15.48,15.48
	s15.481-6.931,15.481-15.48v-18.061H472.48v35.96h-18.06c-8.551,0-15.481,6.931-15.481,15.48s6.93,15.481,15.481,15.481h18.06v9.029
	c0,8.55,6.93,15.481,15.479,15.481V264.601L307.9,264.722z"/>
<polygon fill="#FDB927" points="-68.574,388.524 -6.714,388.524 -6.714,224.667 -68.574,183.752 "/>
<polygon fill="#FDB927" points="-6.693,143.002 -6.693,224.681 55.167,265.596 55.167,183.917 "/>
<polygon fill="#FDB927" points="55.188,388.524 117.047,388.524 117.047,306.525 55.188,265.611 "/>
<polygon fill="#FDB927" points="117.047,140.839 55.188,140.839 55.188,183.931 117.047,224.845 "/>
<polygon fill="#FDB927" points="117.069,224.859 117.069,306.54 178.928,347.455 178.928,265.774 "/>
<polygon fill="#FDB927" points="240.809,140.839 178.95,140.839 178.95,265.789 240.809,306.703 "/>
<polygon fill="#FDB927" points="178.95,388.524 240.809,388.524 240.809,388.384 178.95,347.469 "/>
<polygon fill="#FDB927" points="302.69,347.632 240.831,306.718 240.831,388.397 241.021,388.524 302.69,388.524 "/>
<polygon fill="#FDB927" points="302.308,636.128 364.168,636.128 364.168,472.271 302.308,431.356 "/>
<polygon fill="#FDB927" points="364.189,390.606 364.189,472.285 426.048,513.2 426.048,431.521 "/>
<polygon fill="#FDB927" points="426.069,636.128 487.928,636.128 487.928,554.129 426.069,513.215 "/>
<polygon fill="#FDB927" points="487.928,388.443 426.069,388.443 426.069,431.535 487.928,472.45 "/>
<polygon fill="#FDB927" points="487.951,472.463 487.951,554.144 549.81,595.059 549.81,513.379 "/>
<polygon fill="#FDB927" points="611.69,388.443 549.831,388.443 549.831,513.393 611.69,554.307 "/>
<polygon fill="#FDB927" points="549.831,636.128 611.69,636.128 611.69,635.987 549.831,595.072 "/>
<polygon fill="#FDB927" points="673.572,595.236 611.712,554.322 611.712,636.001 611.902,636.128 673.572,636.128 "/>
<rect x="-68.574" y="140.839" fill="none" width="741.007" height="495.208"/>
</svg>
